<?xml version="1.0" encoding="UTF-8" standalone="no"?>
<!-- Created with Inkscape (http://www.inkscape.org/) -->

<svg
   xmlns:dc="http://purl.org/dc/elements/1.1/"
   xmlns:cc="http://creativecommons.org/ns#"
   xmlns:rdf="http://www.w3.org/1999/02/22-rdf-syntax-ns#"
   xmlns:svg="http://www.w3.org/2000/svg"
   xmlns="http://www.w3.org/2000/svg"
   xmlns:sodipodi="http://sodipodi.sourceforge.net/DTD/sodipodi-0.dtd"
   xmlns:inkscape="http://www.inkscape.org/namespaces/inkscape"
   width="1752.8969"
   height="363.92047"
   id="svg3654"
   version="1.1"
   inkscape:version="0.48.3.1 r9886"
   sodipodi:docname="New document 5">
  <defs
     id="defs3656" />
  <sodipodi:namedview
     id="base"
     pagecolor="#ffffff"
     bordercolor="#666666"
     borderopacity="1.0"
     inkscape:pageopacity="0.0"
     inkscape:pageshadow="2"
     inkscape:zoom="0.24748737"
     inkscape:cx="698.6362"
     inkscape:cy="100.62619"
     inkscape:document-units="px"
     inkscape:current-layer="g3180"
     showgrid="false"
     fit-margin-top="0"
     fit-margin-left="0"
     fit-margin-right="0"
     fit-margin-bottom="0"
     inkscape:window-width="1317"
     inkscape:window-height="744"
     inkscape:window-x="49"
     inkscape:window-y="24"
     inkscape:window-maximized="1" />
  <metadata
     id="metadata3659">
    <rdf:RDF>
      <cc:Work
         rdf:about="">
        <dc:format>image/svg+xml</dc:format>
        <dc:type
           rdf:resource="http://purl.org/dc/dcmitype/StillImage" />
        <dc:title></dc:title>
      </cc:Work>
    </rdf:RDF>
  </metadata>
  <g
     inkscape:label="Layer 1"
     inkscape:groupmode="layer"
     id="layer1"
     transform="translate(2539.3056,-30.368722)">
    <g
       id="g3180"
       transform="matrix(4.6400195,0,0,4.6400195,-3428.4279,-1403.8818)">
      <path
         id="path3765"
         style="font-size:37.29860687000000041px;font-style:normal;font-variant:normal;font-weight:normal;font-stretch:normal;line-height:125%;letter-spacing:0px;word-spacing:0px;fill:#37abc8;fill-opacity:1;stroke:none;font-family:Imprima;-inkscape-font-specification:Imprima"
         d="m 513.86042,361.93569 c -2.13846,0 -3.89149,-0.80813 -5.2591,-2.42441 -1.36762,-1.61627 -2.05142,-3.94121 -2.05142,-6.97484 0,-3.05847 0.85786,-5.53261 2.5736,-7.42242 1.7406,-1.91464 3.89148,-2.87197 6.45266,-2.87199 2.58602,2e-5 4.91097,0.72112 6.97484,2.16332 l 0,13.2783 0.37299,3.72986 -2.46171,0.1865 -0.63408,-3.35688 c -1.39249,2.46171 -3.38175,3.69256 -5.96778,3.69256 m -4.47583,-9.47384 c 0,2.23792 0.47245,3.95365 1.41735,5.14721 0.94489,1.19355 2.15088,1.79033 3.61796,1.79033 1.49194,0 2.74766,-0.73354 3.76716,-2.20062 1.01948,-1.49194 1.52923,-3.59309 1.52925,-6.30346 l 0,-5.18451 c -1.24331,-0.62163 -2.57362,-0.93245 -3.99096,-0.93247 -1.84007,2e-5 -3.35688,0.72113 -4.55043,2.16332 -1.19356,1.41736 -1.79033,3.25743 -1.79033,5.5202 m -13.18038,9.47384 c -2.23792,0 -4.09042,-0.78327 -5.55749,-2.34981 -1.44222,-1.56654 -2.16332,-3.86662 -2.16332,-6.90024 0,-3.03361 0.85786,-5.53261 2.5736,-7.49702 1.71573,-1.96438 3.94121,-2.94657 6.67645,-2.94659 1.74059,2e-5 3.14551,0.53463 4.21475,1.60384 1.06921,1.04438 1.60382,2.36226 1.60384,3.95365 -2e-5,1.56656 -0.82059,3.00877 -2.46171,4.32664 -1.61629,1.31789 -3.97853,1.97683 -7.08674,1.97683 -0.82057,0 -1.69087,-0.0373 -2.6109,-0.1119 0.17406,1.76547 0.70867,3.10822 1.60384,4.02825 0.92003,0.92003 2.02655,1.38005 3.31958,1.38005 2.1633,0 3.96607,-0.67137 5.40829,-2.01413 l 1.34275,1.82764 c -1.88981,1.81519 -4.17745,2.72279 -6.86294,2.72279 m 1.41735,-17.15736 c -1.71575,2e-5 -3.14553,0.60923 -4.28934,1.82764 -1.11897,1.21843 -1.77791,2.8347 -1.97683,4.84882 0.82057,0.12433 1.72816,0.1865 2.7228,0.18649 2.13844,1e-5 3.77958,-0.39784 4.92342,-1.19356 1.14381,-0.79569 1.71572,-1.71572 1.71573,-2.76009 -10e-6,-0.77083 -0.28597,-1.4422 -0.85787,-2.01413 -0.54705,-0.59676 -1.29303,-0.89515 -2.23791,-0.89517 m -19.70708,-2.5363 c 4.07797,2e-5 6.11696,2.61092 6.11697,7.83271 l 0,11.33877 -2.83469,0 0,-11.33877 c -2e-5,-3.53092 -1.25573,-5.29639 -3.76716,-5.29641 -1.44222,2e-5 -2.76011,0.74599 -3.95365,2.23792 -1.1687,1.49196 -1.79034,3.54338 -1.86493,6.15427 l 0,8.24299 -2.8347,0 0,-14.91944 -0.37298,-3.72986 2.46171,-0.18649 0.70867,3.84175 c 0.77083,-1.34273 1.72816,-2.37466 2.87199,-3.09578 1.14382,-0.72109 2.30007,-1.08164 3.46877,-1.08166 m -24.37289,19.69366 c -2.13846,0 -3.89149,-0.80813 -5.2591,-2.42441 -1.36762,-1.61627 -2.05143,-3.94121 -2.05143,-6.97484 0,-3.05847 0.85787,-5.53261 2.57361,-7.42242 1.74059,-1.91464 3.89148,-2.87197 6.45266,-2.87199 2.58602,2e-5 4.91097,0.72112 6.97484,2.16332 l 0,13.2783 0.37298,3.72986 -2.4617,0.1865 -0.63408,-3.35688 c -1.3925,2.46171 -3.38175,3.69256 -5.96778,3.69256 m -4.47583,-9.47384 c -1e-5,2.23792 0.47244,3.95365 1.41735,5.14721 0.94489,1.19355 2.15087,1.79033 3.61796,1.79033 1.49193,0 2.74765,-0.73354 3.76716,-2.20062 1.01948,-1.49194 1.52923,-3.59309 1.52924,-6.30346 l 0,-5.18451 c -1.2433,-0.62163 -2.57361,-0.93245 -3.99095,-0.93247 -1.84007,2e-5 -3.35688,0.72113 -4.55043,2.16332 -1.19356,1.41736 -1.79034,3.25743 -1.79033,5.5202 m 9.25005,-18.46281 c 0.79569,2e-5 1.41734,0.65897 1.86493,1.97682 l -6.71375,5.4829 -0.89516,-0.93247 3.80446,-5.2218 c 0.64649,-0.87028 1.293,-1.30543 1.93952,-1.30545 m -20.8709,27.41447 -2.83469,0 0,-14.91944 -0.37299,-3.72986 2.46171,-0.18649 0.74597,4.47583 c 0.74597,-1.54166 1.69086,-2.71035 2.83469,-3.50607 1.14382,-0.79568 2.3871,-1.19354 3.72987,-1.19355 l 0.18649,2.83469 c -4.37638,0.34814 -6.62673,3.69257 -6.75105,10.03332 l 0,6.19157 m -13.11279,0 -2.8347,0 0,-14.91944 -0.37298,-3.72986 2.46171,-0.18649 0.74597,4.47583 c 0.74596,-1.54166 1.69086,-2.71035 2.83469,-3.50607 1.14382,-0.79568 2.3871,-1.19354 3.72986,-1.19355 l 0.1865,2.83469 c -4.37638,0.34814 -6.62673,3.69257 -6.75105,10.03332 l 0,6.19157 m -14.67234,0.52218 c -2.23793,0 -4.09042,-0.78327 -5.55749,-2.34981 -1.44222,-1.56654 -2.16333,-3.86662 -2.16332,-6.90024 -10e-6,-3.03361 0.85786,-5.53261 2.5736,-7.49702 1.71573,-1.96438 3.94121,-2.94657 6.67645,-2.94659 1.74059,2e-5 3.1455,0.53463 4.21474,1.60384 1.06921,1.04438 1.60383,2.36226 1.60384,3.95365 -1e-5,1.56656 -0.82058,3.00877 -2.46171,4.32664 -1.61628,1.31789 -3.97852,1.97683 -7.08673,1.97683 -0.82058,0 -1.69088,-0.0373 -2.6109,-0.1119 0.17405,1.76547 0.70867,3.10822 1.60384,4.02825 0.92002,0.92003 2.02655,1.38005 3.31957,1.38005 2.16331,0 3.96608,-0.67137 5.4083,-2.01413 l 1.34275,1.82764 c -1.88981,1.81519 -4.17745,2.72279 -6.86294,2.72279 m 1.41734,-17.15736 c -1.71574,2e-5 -3.14552,0.60923 -4.28934,1.82764 -1.11896,1.21843 -1.7779,2.8347 -1.97682,4.84882 0.82056,0.12433 1.72816,0.1865 2.7228,0.18649 2.13844,1e-5 3.77958,-0.39784 4.92341,-1.19356 1.14381,-0.79569 1.71573,-1.71572 1.71574,-2.76009 -10e-6,-0.77083 -0.28597,-1.4422 -0.85787,-2.01413 -0.54706,-0.59676 -1.29303,-0.89515 -2.23792,-0.89517 m -22.04639,0.41029 0,-2.42441 2.8347,0 0.89516,-5.59479 1.93953,0 0,5.59479 4.36394,0 0,2.42441 -4.36394,0 0,12.15935 c -1e-5,1.36761 0.55947,2.05142 1.67844,2.05142 0.84542,0 1.76546,-0.36055 2.7601,-1.08166 l 1.04436,1.90223 c -1.44223,1.14382 -2.84714,1.71573 -4.21475,1.71573 -1.36762,0 -2.39955,-0.32325 -3.09578,-0.96976 -0.67138,-0.67137 -1.00707,-1.87736 -1.00706,-3.61796 l 0,-12.15935 -2.8347,0 m -7.19338,-6.48996 c -0.29839,-0.3481 -0.44759,-0.78325 -0.44759,-1.30545 0,-0.52216 0.1492,-0.94487 0.44759,-1.26815 0.29838,-0.3481 0.73353,-0.52216 1.30545,-0.52218 0.57191,2e-5 1.01949,0.17408 1.34275,0.52218 0.32325,0.34814 0.48487,0.77086 0.48488,1.26815 -1e-5,0.49734 -0.16163,0.92006 -0.48488,1.26815 -0.32326,0.34815 -0.77084,0.52221 -1.34275,0.52218 -0.57192,3e-5 -1.00707,-0.1616 -1.30545,-0.48488 m -0.0746,22.71485 0,-18.6493 2.83469,0 0,18.6493 -2.83469,0 m -15.42122,0.52218 c -2.13846,0 -3.8915,-0.80813 -5.25911,-2.42441 -1.36762,-1.61627 -2.05142,-3.94121 -2.05142,-6.97484 0,-3.05847 0.85786,-5.53261 2.5736,-7.42242 1.7406,-1.91464 3.94121,-2.87197 6.60186,-2.87199 1.31787,2e-5 2.64818,0.23624 3.99095,0.70867 l 0,-7.64621 2.83469,0 0,22.37916 0.37299,3.72986 -2.46171,0.1865 -0.63408,-3.35688 c -1.39249,2.46171 -3.38175,3.69256 -5.96777,3.69256 m -4.47584,-9.47384 c 0,2.23792 0.47245,3.95365 1.41735,5.14721 0.94489,1.19355 2.15088,1.79033 3.61797,1.79033 1.49193,0 2.74765,-0.73354 3.76715,-2.20062 1.01949,-1.49194 1.52923,-3.59309 1.52925,-6.30346 l 0,-5.18451 c -1.2433,-0.62163 -2.57362,-0.93245 -3.99095,-0.93247 -1.84008,2e-5 -3.35689,0.72113 -4.55043,2.16332 -1.19356,1.41736 -1.79034,3.25743 -1.79034,5.5202 m -13.18039,9.47384 c -2.23793,0 -4.09042,-0.78327 -5.55749,-2.34981 -1.44222,-1.56654 -2.16333,-3.86662 -2.16332,-6.90024 -1e-5,-3.03361 0.85786,-5.53261 2.5736,-7.49702 1.71573,-1.96438 3.94121,-2.94657 6.67645,-2.94659 1.74059,2e-5 3.1455,0.53463 4.21474,1.60384 1.06921,1.04438 1.60383,2.36226 1.60384,3.95365 -10e-6,1.56656 -0.82058,3.00877 -2.4617,4.32664 -1.61629,1.31789 -3.97853,1.97683 -7.08674,1.97683 -0.82058,0 -1.69088,-0.0373 -2.6109,-0.1119 0.17405,1.76547 0.70867,3.10822 1.60384,4.02825 0.92002,0.92003 2.02655,1.38005 3.31957,1.38005 2.16331,0 3.96608,-0.67137 5.4083,-2.01413 l 1.34275,1.82764 c -1.88981,1.81519 -4.17745,2.72279 -6.86294,2.72279 m 1.41734,-17.15736 c -1.71574,2e-5 -3.14552,0.60923 -4.28933,1.82764 -1.11897,1.21843 -1.77791,2.8347 -1.97683,4.84882 0.82056,0.12433 1.72816,0.1865 2.7228,0.18649 2.13844,1e-5 3.77958,-0.39784 4.92341,-1.19356 1.14381,-0.79569 1.71573,-1.71572 1.71574,-2.76009 -10e-6,-0.77083 -0.28597,-1.4422 -0.85787,-2.01413 -0.54706,-0.59676 -1.29303,-0.89515 -2.23792,-0.89517 m -38.21067,16.63518 0.93246,-25.36305 3.46878,0 7.7954,17.86603 7.83271,-17.86603 3.46877,0 0.93247,25.36305 -2.98389,0 -0.74597,-19.84286 -6.93754,15.88921 -3.09579,0 -6.97484,-15.88921 -0.70867,19.84286 -2.98389,0" />
      <path
         id="path3769"
         style="font-size:37.29860687000000041px;font-style:normal;font-variant:normal;font-weight:normal;font-stretch:normal;line-height:125%;letter-spacing:0px;word-spacing:0px;fill:#374548;fill-opacity:1;stroke:none;font-family:Imprima;-inkscape-font-specification:Imprima"
         d="m 544.71337,356.3409 c 0.74597,0.82058 1.71573,1.50438 2.90929,2.05143 1.21842,0.54704 2.5363,0.82057 3.95366,0.82057 1.4422,0 2.67305,-0.37299 3.69256,-1.11896 1.04434,-0.74597 1.56652,-1.79033 1.56654,-3.13309 -2e-5,-1.3676 -0.4476,-2.43683 -1.34275,-3.20768 -0.87031,-0.77082 -1.93954,-1.35517 -3.20768,-1.75303 -1.2433,-0.39784 -2.49902,-0.82056 -3.76716,-1.26815 -1.24329,-0.44757 -2.31252,-1.18111 -3.20768,-2.20062 -0.8703,-1.04435 -1.30545,-2.41196 -1.30545,-4.10285 0,-2.31249 0.74597,-4.05309 2.23791,-5.2218 1.51681,-1.16867 3.29471,-1.75301 5.33371,-1.75304 2.80981,3e-5 5.13476,0.58437 6.97483,1.75304 l -1.49194,2.38711 c -1.41736,-0.89515 -3.25742,-1.34273 -5.52019,-1.34275 -1.19357,2e-5 -2.25036,0.33571 -3.17039,1.00706 -0.92003,0.6714 -1.38005,1.66603 -1.38004,2.98389 -1e-5,1.66602 0.85786,2.88444 2.5736,3.65526 0.74596,0.34814 1.56653,0.65896 2.46171,0.93247 0.92002,0.27354 1.82762,0.59679 2.7228,0.96976 0.92002,0.373 1.75302,0.82058 2.499,1.34275 1.71572,1.1687 2.57359,2.99633 2.57361,5.4829 -2e-5,2.46171 -0.79572,4.3142 -2.38711,5.55749 -1.56656,1.21842 -3.55582,1.82763 -5.96778,1.82763 -3.20769,0 -6.02995,-1.14382 -8.46678,-3.43147 l 1.71573,-2.23792 m -12.41052,2.98389 c 2.51143,0 3.76715,-1.69087 3.76716,-5.07261 l 0,-18.20172 2.98389,0 0,18.20172 c -10e-6,2.46171 -0.59679,4.37637 -1.79033,5.74399 -1.1687,1.34275 -2.68551,2.01412 -4.55043,2.01412 -2.71037,0 -4.97315,-0.9076 -6.78835,-2.7228 l 1.64114,-2.08872 c 1.49194,1.41735 3.07091,2.12602 4.73692,2.12602" />
      <path
         id="path3190"
         style="font-size:144px;font-style:normal;font-variant:normal;font-weight:normal;font-stretch:normal;text-align:start;line-height:125%;letter-spacing:0px;word-spacing:0px;writing-mode:lr-tb;text-anchor:start;fill:#374548;fill-opacity:1;stroke:none;font-family:Lato;-inkscape-font-specification:Lato"
         d="m 230.19969,348.74786 c 0,-0.66449 0.11501,-1.29068 0.34505,-1.87858 0.25558,-0.58782 0.58785,-1.099 0.99679,-1.53354 0.4345,-0.43447 0.94568,-0.77951 1.53355,-1.03514 0.58784,-0.25555 1.21403,-0.38335 1.87858,-0.38338 0.66453,3e-5 1.29072,0.12783 1.87858,0.38338 0.58785,0.25563 1.09902,0.60067 1.53354,1.03514 0.43449,0.43454 0.76675,0.94572 0.99681,1.53354 0.25556,0.5879 0.38336,1.21409 0.38338,1.87858 -2e-5,0.69012 -0.12782,1.3291 -0.38338,1.91693 -0.23006,0.56233 -0.56232,1.06073 -0.99681,1.4952 -0.43452,0.43453 -0.94569,0.77958 -1.53354,1.03514 -0.58786,0.23006 -1.21405,0.34507 -1.87858,0.34504 -0.66455,3e-5 -1.29074,-0.11498 -1.87858,-0.34504 -0.58787,-0.25556 -1.09905,-0.60061 -1.53355,-1.03514 -0.40894,-0.43447 -0.74121,-0.93287 -0.99679,-1.4952 -0.23004,-0.58783 -0.34505,-1.22681 -0.34505,-1.91693"
         inkscape:connector-curvature="0"
         sodipodi:nodetypes="ccccccccccccccccc" />
      <path
         sodipodi:nodetypes="ccscccccccccccccccccscccc"
         inkscape:connector-curvature="0"
         id="path3194"
         style="font-size:144px;font-style:normal;font-variant:normal;font-weight:normal;font-stretch:normal;text-align:start;line-height:125%;letter-spacing:0px;word-spacing:0px;writing-mode:lr-tb;text-anchor:start;fill:#37abc8;fill-opacity:1;stroke:none;font-family:Lato;-inkscape-font-specification:Lato"
         d="m 239.61178,367.39679 c 1e-5,-0.58785 -0.10223,-1.13737 -0.30671,-1.64856 -0.23002,-0.53673 -0.53672,-0.99679 -0.92012,-1.38018 -0.40893,-0.40894 -0.89455,-0.72842 -1.45686,-0.95846 -0.56229,-0.23002 -1.1757,-0.34504 -1.84024,-0.34505 -0.76676,10e-6 -1.44408,0.14059 -2.03195,0.42172 -0.61339,0.28116 -1.11179,0.67733 -1.49519,1.1885 -0.40893,0.48563 -0.71564,1.0607 -0.92012,1.72522 -0.20446,0.63899 -0.3067,1.34186 -0.30671,2.10862 1e-5,1.15016 0.16615,2.35144 0.4984,3.60382 0.33227,1.22683 0.80512,2.44088 1.41852,3.64215 0.61343,1.22683 1.38019,2.41532 2.3003,3.56548 0.89458,1.15015 1.91694,2.21084 3.06708,3.1821 l 1.15016,-1.11183 c 0.33227,-0.30671 0.4984,-0.66453 0.4984,-1.07347 0,-0.33227 -0.17891,-0.67732 -0.53674,-1.03513 -0.25559,-0.28116 -0.57506,-0.66455 -0.95847,-1.15016 -0.40892,-0.46007 -0.81787,-0.9968 -1.22683,-1.61022 -0.40892,-0.61341 -0.77953,-1.29073 -1.11181,-2.03194 -0.35781,-0.74121 -0.6134,-1.53354 -0.76677,-2.37698 l 0.4984,0 c 0.66455,0 1.26518,-0.11502 1.80191,-0.34505 0.53675,-0.23003 1.00959,-0.54951 1.41852,-0.95846 0.3834,-0.4345 0.6901,-0.93289 0.92012,-1.4952 0.20448,-0.58785 0.30672,-1.22683 0.30671,-1.91692" />
      <path
         d="m 230.33388,330.06063 c -1e-5,0.58785 0.10223,1.13737 0.30671,1.64856 0.23002,0.53672 0.53672,0.99678 0.92012,1.38018 0.40893,0.40893 0.89455,0.72842 1.45686,0.95846 0.56229,0.23002 1.1757,0.34504 1.84024,0.34504 0.76676,0 1.44407,-0.14058 2.03194,-0.42171 0.6134,-0.28116 1.1118,-0.67733 1.4952,-1.1885 0.40893,-0.48563 0.71564,-1.06071 0.92012,-1.72523 0.20446,-0.63898 0.3067,-1.34185 0.30671,-2.10861 -1e-5,-1.15017 -0.16615,-2.35144 -0.4984,-3.60382 -0.33228,-1.22683 -0.80512,-2.44088 -1.41852,-3.64216 -0.61343,-1.22682 -1.38019,-2.41532 -2.3003,-3.56547 -0.89458,-1.15015 -1.91694,-2.21084 -3.06708,-3.1821 l -1.15016,1.11182 c -0.33227,0.30671 -0.4984,0.66454 -0.4984,1.07347 0,0.33228 0.17891,0.67732 0.53674,1.03514 0.25559,0.28116 0.57506,0.66455 0.95847,1.15016 0.40892,0.46007 0.81787,0.9968 1.22683,1.61021 0.40892,0.61342 0.77953,1.29073 1.11181,2.03195 0.35781,0.74121 0.6134,1.53354 0.76677,2.37698 l -0.4984,0 c -0.66455,0 -1.26518,0.11502 -1.80191,0.34504 -0.53675,0.23004 -1.00959,0.54951 -1.41852,0.95847 -0.3834,0.4345 -0.6901,0.93289 -0.92012,1.49519 -0.20448,0.58786 -0.30672,1.22684 -0.30671,1.91693"
         style="font-size:144px;font-style:normal;font-variant:normal;font-weight:normal;font-stretch:normal;text-align:start;line-height:125%;letter-spacing:0px;word-spacing:0px;writing-mode:lr-tb;text-anchor:start;fill:#37abc8;fill-opacity:1;stroke:none;font-family:Lato;-inkscape-font-specification:Lato"
         id="path3196"
         inkscape:connector-curvature="0"
         sodipodi:nodetypes="ccscccccccccccccccccscccc" />
      <path
         sodipodi:nodetypes="ccscccccccccccccccccscccc"
         inkscape:connector-curvature="0"
         id="path3200"
         style="font-size:144px;font-style:normal;font-variant:normal;font-weight:normal;font-stretch:normal;text-align:start;line-height:125%;letter-spacing:0px;word-spacing:0px;writing-mode:lr-tb;text-anchor:start;fill:#37abc8;fill-opacity:1;stroke:none;font-family:Lato;-inkscape-font-specification:Lato"
         d="m 225.05274,365.20927 c 0.41568,-0.41567 0.73195,-0.87653 0.94883,-1.38258 0.21687,-0.54218 0.32531,-1.08436 0.32531,-1.62656 0,-0.57832 -0.11748,-1.14762 -0.35243,-1.70789 -0.23494,-0.56025 -0.58736,-1.07532 -1.05726,-1.54523 -0.54219,-0.54218 -1.12052,-0.92171 -1.735,-1.1386 -0.63255,-0.23493 -1.2651,-0.30722 -1.89766,-0.21687 -0.63254,0.0542 -1.25606,0.244 -1.87054,0.56929 -0.59641,0.30726 -1.1657,0.73197 -1.70789,1.27414 -0.81328,0.8133 -1.54523,1.7802 -2.19586,2.90071 -0.63255,1.10245 -1.15666,2.29527 -1.57235,3.57844 -0.43374,1.30125 -0.73195,2.68383 -0.89461,4.14773 -0.18072,1.44584 -0.20783,2.91878 -0.0813,4.41883 l 1.59946,0.0271 c 0.45182,0.0181 0.82232,-0.11747 1.11148,-0.40663 0.23495,-0.23496 0.35243,-0.60545 0.35242,-1.11149 0.0181,-0.37954 0.0633,-0.87654 0.13554,-1.49102 0.0362,-0.61447 0.12653,-1.28317 0.2711,-2.0061 0.1446,-0.7229 0.36147,-1.4639 0.65063,-2.22297 0.2711,-0.77712 0.65063,-1.51811 1.13859,-2.22297 l 0.35243,0.35243 c 0.4699,0.4699 0.97594,0.81329 1.51812,1.03016 0.5422,0.21688 1.10245,0.32532 1.68078,0.32531 0.57834,-0.0361 1.14763,-0.17169 1.70789,-0.40664 0.56026,-0.27109 1.08438,-0.65062 1.57235,-1.1386" />
      <path
         d="m 244.89292,332.24815 c -0.41568,0.41567 -0.73196,0.87653 -0.94883,1.38258 -0.21687,0.54218 -0.32532,1.08436 -0.32532,1.62656 0,0.57832 0.11748,1.14762 0.35243,1.7079 0.23495,0.56024 0.58736,1.07532 1.05726,1.54523 0.54219,0.54217 1.12052,0.9217 1.735,1.1386 0.63255,0.23492 1.26511,0.30721 1.89766,0.21687 0.63255,-0.0542 1.25607,-0.244 1.87054,-0.5693 0.59641,-0.30726 1.1657,-0.73197 1.7079,-1.27414 0.81327,-0.8133 1.54523,-1.7802 2.19586,-2.90071 0.63254,-1.10245 1.15666,-2.29527 1.57234,-3.57844 0.43374,-1.30125 0.73195,-2.68383 0.89462,-4.14773 0.18071,-1.44584 0.20782,-2.91878 0.0813,-4.41883 l -1.59946,-0.0271 c -0.45183,-0.0181 -0.82233,0.11748 -1.11149,0.40664 -0.23495,0.23495 -0.35243,0.60544 -0.35241,1.11148 -0.0181,0.37954 -0.0633,0.87654 -0.13555,1.49102 -0.0362,0.61448 -0.12653,1.28317 -0.27109,2.0061 -0.1446,0.7229 -0.36147,1.4639 -0.65063,2.22297 -0.27111,0.77712 -0.65064,1.51812 -1.1386,2.22297 l -0.35242,-0.35242 c -0.46991,-0.46991 -0.97595,-0.81329 -1.51813,-1.03016 -0.5422,-0.21689 -1.10244,-0.32533 -1.68078,-0.32532 -0.57834,0.0361 -1.14763,0.17169 -1.70789,0.40665 -0.56026,0.27108 -1.08438,0.65061 -1.57234,1.13859"
         style="font-size:144px;font-style:normal;font-variant:normal;font-weight:normal;font-stretch:normal;text-align:start;line-height:125%;letter-spacing:0px;word-spacing:0px;writing-mode:lr-tb;text-anchor:start;fill:#37abc8;fill-opacity:1;stroke:none;font-family:Lato;-inkscape-font-specification:Lato"
         id="path3202"
         inkscape:connector-curvature="0"
         sodipodi:nodetypes="ccscccccccccccccccccscccc" />
      <path
         sodipodi:nodetypes="ccscccccccccccccccccscccc"
         inkscape:connector-curvature="0"
         id="path3206"
         style="font-size:144px;font-style:normal;font-variant:normal;font-weight:normal;font-stretch:normal;text-align:start;line-height:125%;letter-spacing:0px;word-spacing:0px;writing-mode:lr-tb;text-anchor:start;fill:#37abc8;fill-opacity:1;stroke:none;font-family:Lato;-inkscape-font-specification:Lato"
         d="m 216.30474,353.36766 c 0.58785,10e-6 1.13737,-0.10223 1.64856,-0.30671 0.53673,-0.23003 0.99679,-0.53673 1.38018,-0.92012 0.40893,-0.40894 0.72842,-0.89455 0.95846,-1.45687 0.23002,-0.56228 0.34504,-1.17569 0.34505,-1.84024 -1e-5,-0.76676 -0.14059,-1.44407 -0.42172,-2.03194 -0.28116,-0.61339 -0.67733,-1.1118 -1.1885,-1.4952 -0.48563,-0.40892 -1.0607,-0.71563 -1.72522,-0.92012 -0.63899,-0.20446 -1.34186,-0.30669 -2.10862,-0.30671 -1.15017,2e-5 -2.35144,0.16615 -3.60382,0.4984 -1.22683,0.33228 -2.44088,0.80512 -3.64216,1.41853 -1.22682,0.61342 -2.41531,1.38019 -3.56547,2.3003 -1.15015,0.89458 -2.21084,1.91693 -3.1821,3.06708 l 1.11182,1.15015 c 0.30671,0.33227 0.66454,0.49841 1.07348,0.49841 0.33227,0 0.67732,-0.17891 1.03513,-0.53675 0.28116,-0.25558 0.66455,-0.57506 1.15016,-0.95846 0.46007,-0.40893 0.9968,-0.81787 1.61021,-1.22683 0.61342,-0.40893 1.29074,-0.77954 2.03195,-1.11181 0.74121,-0.35781 1.53354,-0.61341 2.37698,-0.76677 l 0,0.4984 c 0,0.66454 0.11502,1.26518 0.34505,1.80191 0.23003,0.53675 0.54951,1.00958 0.95846,1.41852 0.4345,0.38339 0.93289,0.69009 1.4952,0.92012 0.58785,0.20448 1.22683,0.30672 1.91692,0.30671" />
      <path
         d="m 253.6409,344.08975 c -0.58785,-10e-6 -1.13737,0.10224 -1.64856,0.30671 -0.53673,0.23003 -0.99679,0.53673 -1.38018,0.92012 -0.40893,0.40894 -0.72842,0.89456 -0.95846,1.45687 -0.23002,0.56228 -0.34504,1.17569 -0.34505,1.84024 1e-5,0.76676 0.14059,1.44407 0.42172,2.03194 0.28116,0.61339 0.67733,1.1118 1.1885,1.4952 0.48563,0.40893 1.06071,0.71563 1.72522,0.92012 0.63899,0.20446 1.34186,0.30669 2.10862,0.30671 1.15017,-2e-5 2.35144,-0.16615 3.60382,-0.4984 1.22683,-0.33228 2.44088,-0.80512 3.64216,-1.41853 1.22682,-0.61342 2.41531,-1.38019 3.56547,-2.3003 1.15015,-0.89458 2.21084,-1.91693 3.1821,-3.06708 l -1.11182,-1.15015 c -0.30671,-0.33227 -0.66454,-0.49841 -1.07348,-0.49841 -0.33227,0 -0.67732,0.17891 -1.03513,0.53675 -0.28116,0.25558 -0.66455,0.57506 -1.15016,0.95846 -0.46007,0.40893 -0.9968,0.81787 -1.61021,1.22683 -0.61342,0.40893 -1.29073,0.77954 -2.03195,1.11182 -0.74121,0.3578 -1.53354,0.6134 -2.37698,0.76677 l 0,-0.49841 c 0,-0.66454 -0.11502,-1.26518 -0.34505,-1.80191 -0.23003,-0.53675 -0.54951,-1.00958 -0.95846,-1.41852 -0.4345,-0.38339 -0.93289,-0.69009 -1.4952,-0.92012 -0.58785,-0.20447 -1.22683,-0.30672 -1.91692,-0.30671"
         style="font-size:144px;font-style:normal;font-variant:normal;font-weight:normal;font-stretch:normal;text-align:start;line-height:125%;letter-spacing:0px;word-spacing:0px;writing-mode:lr-tb;text-anchor:start;fill:#37abc8;fill-opacity:1;stroke:none;font-family:Lato;-inkscape-font-specification:Lato"
         id="path3208"
         inkscape:connector-curvature="0"
         sodipodi:nodetypes="ccscccccccccccccccccscccc" />
      <path
         d="m 218.49227,338.80862 c 0.41567,0.41568 0.87653,0.73195 1.38258,0.94883 0.54218,0.21687 1.08436,0.32531 1.62656,0.32531 0.57832,0 1.14762,-0.11748 1.7079,-0.35243 0.56024,-0.23494 1.07532,-0.58736 1.54523,-1.05726 0.54217,-0.54219 0.9217,-1.12052 1.1386,-1.735 0.23492,-0.63255 0.30721,-1.2651 0.21687,-1.89766 -0.0542,-0.63254 -0.244,-1.25606 -0.5693,-1.87054 -0.30725,-0.59641 -0.73197,-1.1657 -1.27414,-1.70789 -0.8133,-0.81328 -1.7802,-1.54523 -2.9007,-2.19586 -1.10246,-0.63255 -2.29528,-1.15666 -3.57845,-1.57235 -1.30125,-0.43374 -2.68383,-0.73195 -4.14773,-0.89461 -1.44584,-0.18072 -2.91877,-0.20783 -4.41883,-0.0813 l -0.0271,1.59946 c -0.0181,0.45182 0.11748,0.82232 0.40664,1.11148 0.23495,0.23495 0.60544,0.35243 1.11149,0.35242 0.37953,0.0181 0.87653,0.0633 1.49101,0.13554 0.61448,0.0362 1.28317,0.12653 2.0061,0.2711 0.72291,0.1446 1.4639,0.36147 2.22297,0.65063 0.77712,0.2711 1.51812,0.65063 2.22297,1.13859 l -0.35242,0.35243 c -0.46991,0.4699 -0.81329,0.97594 -1.03016,1.51812 -0.21689,0.5422 -0.32533,1.10245 -0.32531,1.68078 0.0361,0.57834 0.17168,1.14763 0.40664,1.70789 0.27109,0.56026 0.65061,1.08438 1.13859,1.57235"
         style="font-size:144px;font-style:normal;font-variant:normal;font-weight:normal;font-stretch:normal;text-align:start;line-height:125%;letter-spacing:0px;word-spacing:0px;writing-mode:lr-tb;text-anchor:start;fill:#37abc8;fill-opacity:1;stroke:none;font-family:Lato;-inkscape-font-specification:Lato"
         id="path3212"
         inkscape:connector-curvature="0"
         sodipodi:nodetypes="ccscccccccccccccccccscccc" />
      <path
         sodipodi:nodetypes="ccscccccccccccccccccscccc"
         inkscape:connector-curvature="0"
         id="path3214"
         style="font-size:144px;font-style:normal;font-variant:normal;font-weight:normal;font-stretch:normal;text-align:start;line-height:125%;letter-spacing:0px;word-spacing:0px;writing-mode:lr-tb;text-anchor:start;fill:#37abc8;fill-opacity:1;stroke:none;font-family:Lato;-inkscape-font-specification:Lato"
         d="m 251.45339,358.6488 c -0.41567,-0.41568 -0.87653,-0.73196 -1.38258,-0.94883 -0.54218,-0.21687 -1.08436,-0.32532 -1.62656,-0.32532 -0.57832,0 -1.14761,0.11748 -1.70789,0.35243 -0.56025,0.23495 -1.07532,0.58736 -1.54523,1.05726 -0.54218,0.54219 -0.92171,1.12052 -1.1386,1.735 -0.23493,0.63255 -0.30722,1.26511 -0.21687,1.89766 0.0542,0.63255 0.244,1.25607 0.56929,1.87054 0.30726,0.59641 0.73197,1.1657 1.27414,1.7079 0.8133,0.81327 1.7802,1.54523 2.90071,2.19586 1.10245,0.63254 2.29527,1.15666 3.57844,1.57234 1.30125,0.43374 2.68383,0.73195 4.14773,0.89462 1.44584,0.18071 2.91878,0.20782 4.41884,0.0813 l 0.0271,-1.59946 c 0.0181,-0.45183 -0.11747,-0.82233 -0.40663,-1.11149 -0.23496,-0.23495 -0.60545,-0.35243 -1.11149,-0.35241 -0.37954,-0.0181 -0.87654,-0.0633 -1.49102,-0.13555 -0.61447,-0.0362 -1.28317,-0.12653 -2.00609,-0.27109 -0.72291,-0.1446 -1.4639,-0.36147 -2.22298,-0.65063 -0.77712,-0.27111 -1.51811,-0.65064 -2.22297,-1.1386 l 0.35243,-0.35242 c 0.4699,-0.46991 0.81329,-0.97595 1.03016,-1.51813 0.21688,-0.5422 0.32532,-1.10244 0.32531,-1.68078 -0.0361,-0.57834 -0.17169,-1.14763 -0.40664,-1.70789 -0.27109,-0.56026 -0.65062,-1.08438 -1.1386,-1.57234" />
      <path
         inkscape:connector-curvature="0"
         id="path3216"
         d="m 290.99583,311.81447 0,73.02502"
         style="fill:none;stroke:#37abc8;stroke-width:1.39869773;stroke-linecap:round;stroke-linejoin:miter;stroke-opacity:1" />
    </g>
  </g>
</svg>
